<svg xmlns="http://www.w3.org/2000/svg" version="1.1" xmlns:xlink="http://www.w3.org/1999/xlink" xmlns:svgjs="http://svgjs.com/svgjs" width="1440" height="560" preserveAspectRatio="none" viewBox="0 0 1440 560">
    <g mask="url(&quot;#SvgjsMask1001&quot;)" fill="none">
        <path d="M1328.515,191.006C1374.472,193.67,1417.878,166.207,1439.52,125.578C1460.035,87.064,1451.687,40.711,1428.145,3.969C1406.516,-29.787,1368.601,-47.065,1328.515,-47.669C1287.2,-48.292,1243.782,-35.14,1223.545,0.885C1203.617,36.36,1218.099,78.264,1237.766,113.884C1258.331,151.132,1286.038,188.544,1328.515,191.006" fill="rgba(28, 83, 142, 0.4)" class="triangle-float3"></path>
        <path d="M368.118,316.505C391.387,316.277,407.779,296.623,419.563,276.557C431.551,256.144,441.298,231.93,430.007,211.123C418.334,189.611,392.593,181.709,368.118,181.751C343.729,181.793,318.437,190.013,306.596,211.335C295.015,232.188,302.853,256.993,314.897,277.582C326.791,297.915,344.563,316.736,368.118,316.505" fill="rgba(28, 83, 142, 0.4)" class="triangle-float3"></path>
        <path d="M916.1799506787913 126.76134468616007L916.1799506787913 17.181891771446104 806.6004977640773 17.181891771446118 806.6004977640773 126.76134468616009z" fill="rgba(28, 83, 142, 0.4)" class="triangle-float2"></path>
        <path d="M912.849,588.293C953.894,589.041,1000.287,585.236,1021.142,549.876C1042.205,514.164,1023.169,471.525,1003.122,435.233C982.124,397.218,956.25,355.382,912.849,353.823C867.681,352.201,831.731,388.366,810.6,428.319C790.935,465.501,788.527,510.61,811.18,546.051C832.363,579.193,873.523,587.577,912.849,588.293" fill="rgba(28, 83, 142, 0.4)" class="triangle-float3"></path>
        <path d="M41.55192716905486 462.44654490970294L129.98614477782132 554.0228580199323 133.12824027928423 374.0123273009365z" fill="rgba(28, 83, 142, 0.4)" class="triangle-float1"></path>
        <path d="M565.709,47.471C581.907,48.005,597.759,39.667,605.298,25.32C612.416,11.774,607.668,-4.099,599.661,-17.139C592.096,-29.458,580.151,-38.51,565.709,-39.15C550.07,-39.844,533.855,-34.003,526.107,-20.401C518.421,-6.907,522.568,9.439,530.394,22.852C538.145,36.136,550.337,46.965,565.709,47.471" fill="rgba(28, 83, 142, 0.4)" class="triangle-float1"></path>
    </g>
    <defs>
        <mask id="SvgjsMask1001">
            <rect width="1440" height="560" fill="#ffffff"></rect>
        </mask>
        <style>
            @keyframes float1 {
                0%{transform: translate(0, 0)}
                50%{transform: translate(-10px, 0)}
                100%{transform: translate(0, 0)}
            }

            .triangle-float1 {
                animation: float1 5s infinite;
            }

            @keyframes float2 {
                0%{transform: translate(0, 0)}
                50%{transform: translate(-5px, -5px)}
                100%{transform: translate(0, 0)}
            }

            .triangle-float2 {
                animation: float2 4s infinite;
            }

            @keyframes float3 {
                0%{transform: translate(0, 0)}
                50%{transform: translate(0, -10px)}
                100%{transform: translate(0, 0)}
            }

            .triangle-float3 {
                animation: float3 6s infinite;
            }
        </style>
    </defs>
</svg>